<svg xmlns="http://www.w3.org/2000/svg" width="70" height="70" viewBox="0 0 70 70">
  <g id="level4" transform="translate(-547 -505)">
    <rect id="Rectangle_86" data-name="Rectangle 86" width="70" height="70" rx="35" transform="translate(547 505)" fill="#fff"/>
    <path id="iconmonstr-basketball-1" d="M30.22.315A34.835,34.835,0,0,0,11.194,9.364c9.718.464,16.838,4.441,24.357,5.361A83.3,83.3,0,0,0,30.22.315m8.313,28.848A87.817,87.817,0,0,0,.65,41.657a34.977,34.977,0,0,0,9.61,18.106C21.35,51.091,25.334,36.39,39,32.971c-.131-1.276-.292-2.543-.467-3.807m-1.485-8.541C25.8,20.006,15.9,13.469,6.592,14.584A34.837,34.837,0,0,0,0,34.988l.02.461c9.762-6.6,24.908-10.973,37.532-12.217-.163-.87-.315-1.746-.5-2.61M69.819,31.435A93.352,93.352,0,0,0,44.4,28.781c.16,1.2.28,2.412.4,3.624,9.952.666,17.506,10.561,20.662,19.8A34.87,34.87,0,0,0,70,34.988c0-1.2-.064-2.386-.181-3.553M59.5,9.994c-6.166,2.333-8.578,8.511-16.529,10.246l.467,2.6a103.744,103.744,0,0,1,25.1,2.178A35.028,35.028,0,0,0,59.5,9.994m-20.1,28.8c-9.8,2.952-14.75,17-24.628,24.74A34.756,34.756,0,0,0,35,70.026l1.616-.082A115.886,115.886,0,0,0,39.392,38.8m5.833-.362a124.467,124.467,0,0,1-2.5,30.7A34.982,34.982,0,0,0,61.962,57.313c-2.931-8.12-8.275-17.4-16.736-18.88m9.22-32.568c-6.542,4.637-7.181,7.4-12.883,8.657A95.682,95.682,0,0,0,36.487.026a34.778,34.778,0,0,1,17.958,5.84" transform="translate(547 504.974)" fill="#f72585" fill-rule="evenodd"/>
  </g>
</svg>
