<svg xmlns="http://www.w3.org/2000/svg" width="70" height="70" viewBox="0 0 70 70">
  <g id="level2" transform="translate(-547 -260)">
    <rect id="Rectangle_81" data-name="Rectangle 81" width="70" height="70" rx="35" transform="translate(547 260)" fill="#f72585"/>
    <path id="iconmonstr-cricket-2" d="M35,0A35,35,0,1,1,0,35,35.017,35.017,0,0,1,35,0M63.19,27.5C45.144,22.636,21.475,31.054,8.1,46.29a29.207,29.207,0,0,0,1.307,2.7l.849-.9,2.106,2.015L11,51.57A29.166,29.166,0,0,0,64.167,35l-.047-1.625c-1.269-.3-1.5-.347-2.85-.636l.612-2.852,1.907.417c-.157-.954-.356-1.887-.6-2.806M18.78,44.444c-2.66,2.153-3.48,2.9-4.4,3.725l-1.937-2.182c2.327-2.065,2.657-2.313,4.5-3.809l1.835,2.266m7.1-4.757c-2.669,1.619-3.506,2.2-4.859,3.106L19.4,40.37q2.446-1.641,4.973-3.176Zm31.541-23.33A29.163,29.163,0,0,0,5.9,32.947l1.616,1.6L5.86,36.225a28.5,28.5,0,0,0,.353,3.485c15.231-14.753,36.114-21.9,54.419-18.629A29.092,29.092,0,0,0,58.9,18.29l-1.744-.283.265-1.651ZM33.559,35.93c-2.917,1.257-3.926,1.77-5.232,2.412L27.04,35.726c2.581-1.269,5.361-2.473,5.361-2.473l1.158,2.678m8.12-2.6c-3.127.825-4.276,1.216-5.521,1.616l-.9-2.774c2.993-.965,3.5-1.088,5.673-1.663Zm8.412-1.257c-1.907.181-3.812.408-5.7.7L43.94,29.9c3.016-.467,3.576-.5,5.877-.723l.274,2.9M14.105,29.135c-2.543,1.893-3.509,2.71-4.53,3.552L7.718,30.441c2.2-1.823,4.646-3.646,4.646-3.646l1.741,2.339m44.713.277-.254,2.908c-3.095-.274-3.31-.263-5.743-.341l.1-2.914c3.121.1,2.9.087,5.9.347M21.394,24.655c-2.952,1.645-3.865,2.225-4.979,2.914l-1.531-2.485c2.718-1.674,2.987-1.805,5.09-2.978l1.42,2.549m7.817-3.448c-2.654,1.03-1.983.747-5.329,2.208l-1.173-2.672c1.8-.788,3.614-1.546,5.448-2.258l1.053,2.721Zm8.216-2.374c-3.328.8-4.448,1.149-5.571,1.479l-.817-2.8c2.887-.849,3.357-.945,5.7-1.514l.685,2.835m8.45-1.178c-3.071.274-4.217.452-5.72.662l-.408-2.887c2.832-.4,5.865-.68,5.865-.68l.263,2.9m8.7-2.85L54.4,17.719c-3.068-.184-4.3-.178-5.749-.187l.015-2.917c2.193.012,2.873.009,5.906.19" transform="translate(547 260)" fill="#fff" fill-rule="evenodd"/>
  </g>
</svg>
