<svg xmlns="http://www.w3.org/2000/svg" width="70" height="70" viewBox="0 0 70 70">
  <g id="level3" transform="translate(-547 -386)">
    <rect id="Rectangle_85" data-name="Rectangle 85" width="70" height="70" rx="35" transform="translate(547 386)" fill="#f72585"/>
    <path id="iconmonstr-volleyball-2" d="M42.472,63.163a24.622,24.622,0,0,1-12.343-6.72c15.234-5.956,27.236-16.281,33.195-28.295A29.093,29.093,0,0,1,42.472,63.163M6.39,29.368a22.844,22.844,0,0,1,10.115,7.28A32.127,32.127,0,0,0,29.73,63.665,29.148,29.148,0,0,1,6.39,29.368m9.535-16.392c6.5,2.252,13.192,7.289,17.876,13.449A59.1,59.1,0,0,1,21.633,33.67,29.291,29.291,0,0,0,8.076,23.794a29.24,29.24,0,0,1,7.849-10.818m31.1-4.521a36.254,36.254,0,0,1-8.852,14.087A48.131,48.131,0,0,0,21.691,9.071a28.929,28.929,0,0,1,25.337-.615m13.163,11.9C56.1,33.5,43.021,45.564,26.3,51.631A26.2,26.2,0,0,1,22.4,39.693c8.388-3.5,23.742-11.92,29.759-28.239a29.29,29.29,0,0,1,8.035,8.9M70,35A35,35,0,1,0,35,70,35.015,35.015,0,0,0,70,35" transform="translate(547 386)" fill="#fff" fill-rule="evenodd"/>
  </g>
</svg>
