<svg xmlns="http://www.w3.org/2000/svg" width="70" height="70" viewBox="0 0 70 70">
  <g id="level6" transform="translate(-547 -764)">
    <rect id="Rectangle_88" data-name="Rectangle 88" width="70" height="70" rx="35" transform="translate(547 764)" fill="#f72585"/>
    <path id="iconmonstr-bowling-2" d="M35,0A35,35,0,1,1,0,35,35.017,35.017,0,0,1,35,0Zm0,5.833A29.167,29.167,0,1,1,5.833,35,29.181,29.181,0,0,1,35,5.833Zm3.237,21.435c3.4,0,6.154,3.039,6.154,6.781s-2.756,6.784-6.154,6.784-6.154-3.039-6.154-6.784S34.843,27.268,38.237,27.268ZM55.1,21.685c1.77,3.124,1.677,6.528-.21,7.6s-4.856-.6-6.627-3.725-1.677-6.528.21-7.6,4.856.6,6.627,3.725ZM32.707,11.667c3.564,0,6.458,2.053,6.458,4.582s-2.893,4.579-6.458,4.579-6.457-2.05-6.457-4.579S29.143,11.667,32.707,11.667Z" transform="translate(547 764)" fill="#fff" fill-rule="evenodd"/>
  </g>
</svg>
