<svg xmlns="http://www.w3.org/2000/svg" width="70" height="70" viewBox="0 0 70 70">
  <g id="level5" transform="translate(-547 -638)">
    <rect id="Rectangle_87" data-name="Rectangle 87" width="70" height="70" rx="35" transform="translate(547 638)" fill="#f72585"/>
    <path id="iconmonstr-soccer-1" d="M50.814,59.482a12.42,12.42,0,0,1-.843-3.261,52.772,52.772,0,0,0,4.935-6.428A44.419,44.419,0,0,0,61.559,47,29.26,29.26,0,0,1,50.814,59.482M26.953,63.017a63.747,63.747,0,0,0,8.257-5.539,46.646,46.646,0,0,0,9.316,1.292l0,.02a14.814,14.814,0,0,0,1.056,3.363,28.774,28.774,0,0,1-18.632.863M5.836,34.962l3.713,3.55a47.629,47.629,0,0,0-.682,9.374A29,29,0,0,1,5.833,35l0-.038M39,6.14l-2.211,5.066a60.9,60.9,0,0,0-15.207,6.145l-8.35-1.709A28.934,28.934,0,0,1,39,6.14M33.74,40.466a125.528,125.528,0,0,1-10.109-7.954l1.592-10.43c4.218-2.473,7.484-3.614,13.058-5.393,2.914,2,5.787,4.165,8.558,6.463l-.006.067a60.019,60.019,0,0,1-2.465,13.11q-5.232,2.293-10.628,4.136M19.863,59.894a29.409,29.409,0,0,1-4.518-3.4,54.8,54.8,0,0,1-.009-17.106l0-.012,5.005-2.173a92.621,92.621,0,0,0,10.722,8.54l.184,7.365a40.192,40.192,0,0,1-11.387,6.781M63.927,38.57A33.3,33.3,0,0,1,55.1,43.479l-5.057-5.854a61.178,61.178,0,0,0,2.526-13.787l7.289-4.028a28.773,28.773,0,0,1,4.066,18.76M35,0A35,35,0,1,0,70,35,35.017,35.017,0,0,0,35,0" transform="translate(547 638)" fill="#fff" fill-rule="evenodd"/>
  </g>
</svg>
