<svg xmlns="http://www.w3.org/2000/svg" width="70" height="70" viewBox="0 0 70 70">
  <g id="level1" transform="translate(-530.947 -142.947)">
    <rect id="Rectangle_81" data-name="Rectangle 81" width="70" height="70" rx="35" transform="translate(530.947 142.947)" fill="#f72585"/>
    <path id="iconmonstr-baseball-2" d="M55.219,55.825c-.679-1.229-1.29-2.458-1.852-3.684l2.257-.83-1.008-2.732-2.379.874a42.621,42.621,0,0,1-1.5-4.645l2.6-.527-.582-2.854-2.639.533a37.783,37.783,0,0,1-.582-5.557h2.889V33.491H49.552A38.9,38.9,0,0,1,50.2,27.94l2.6.527.58-2.854L50.845,25.1a46.017,46.017,0,0,1,1.494-4.622l2.277.839,1.008-2.732-2.164-.8c.548-1.22,1.145-2.443,1.809-3.672a29.052,29.052,0,0,1-.05,41.709M19.311,59.486A57.48,57.48,0,0,0,22,54.153l3.209,1.179,1-2.732-3.1-1.142a49.182,49.182,0,0,0,1.747-5.5l3.119.632.58-2.854-3.1-.629a43.927,43.927,0,0,0,.7-6.71h2.962V33.491H26.143a45.047,45.047,0,0,0-.775-6.7l3.139-.635-.58-2.854-3.183.647a50.98,50.98,0,0,0-1.736-5.472l3.2-1.177-1-2.735L21.9,15.779C21.12,14,20.258,12.22,19.262,10.44a28.958,28.958,0,0,1,31.371,0C49.639,12.22,48.774,14,48,15.779l-3.308-1.217-1,2.735,3.2,1.177a50.309,50.309,0,0,0-1.733,5.472L41.966,23.3l-.58,2.854,3.136.635a45.823,45.823,0,0,0-.772,6.7H40.772V36.4h2.962a43.563,43.563,0,0,0,.7,6.71l-3.1.629.58,2.854,3.119-.632a48.606,48.606,0,0,0,1.75,5.5l-3.1,1.142,1,2.732L47.9,54.153a58.21,58.21,0,0,0,2.685,5.332,28.959,28.959,0,0,1-31.272,0M5.825,34.947a29.018,29.018,0,0,1,8.8-20.831c.661,1.226,1.258,2.452,1.806,3.672l-2.161.8,1,2.732,2.28-.839A45.258,45.258,0,0,1,19.049,25.1l-2.537.515.58,2.854,2.6-.527a38.9,38.9,0,0,1,.652,5.551H17.474V36.4h2.892a38.188,38.188,0,0,1-.585,5.557l-2.639-.533-.58,2.854,2.6.527a42.6,42.6,0,0,1-1.5,4.645l-2.382-.874-1,2.732,2.257.83c-.562,1.229-1.174,2.455-1.852,3.684A29.012,29.012,0,0,1,5.825,34.947M34.947,0A34.947,34.947,0,1,0,69.894,34.947,34.963,34.963,0,0,0,34.947,0" transform="translate(531 143)" fill="#fff" fill-rule="evenodd"/>
  </g>
</svg>
