<svg xmlns="http://www.w3.org/2000/svg" width="70" height="70" viewBox="0 0 70 70">
  <g id="level7" transform="translate(-547 -890)">
    <rect id="Rectangle_89" data-name="Rectangle 89" width="70" height="70" rx="35" transform="translate(547 890)" fill="#f72585"/>
    <path id="iconmonstr-snooker-1" d="M35,0A35,35,0,1,1,0,35,35.017,35.017,0,0,1,35,0Zm0,14.583A16.042,16.042,0,1,1,18.958,30.625,16.048,16.048,0,0,1,35,14.583ZM39.655,30.2a4.783,4.783,0,0,0,1.878-3.955c0-3.815-2.917-5.833-6.533-5.833s-6.533,2.018-6.533,5.833A4.783,4.783,0,0,0,30.345,30.2a5.471,5.471,0,0,0-2.552,4.71c0,3.59,2.578,5.918,7.207,5.918s7.207-2.328,7.207-5.918A5.472,5.472,0,0,0,39.655,30.2ZM35,36.627c-1.569,0-2.721-.869-2.721-2.357S33.431,31.914,35,31.914s2.721.869,2.721,2.357S36.569,36.627,35,36.627Zm0-12a1.912,1.912,0,1,1-2.047,1.908A1.88,1.88,0,0,1,35,24.622Z" transform="translate(547 890)" fill="#fff" fill-rule="evenodd"/>
  </g>
</svg>
